# xmcd
#
# Track frame offsets:
# 182
# 19175
# 39952
# 60380
# 83507
# 109640
# 129650
# 144870
# 164385
# 184577
#
# Disc length: 2874 seconds
#
#
# Revision: 0
# Processed by: cddbd v1.5.2PL0 Copyright (c) Steve Scherf et al.
# Submitted via: Nero 7, 11, 10, 0 
#
DISCID=710b380a
DTITLE=Jay McShann and Al Casey - Best Of Friends
DYEAR=1982
DGENRE=Blues
TTITLE0='Deed I Do
TTITLE1=One O'Clock Jump
TTITLE2=Going To Kansas City
TTITLE3=One Sweet Blues
TTITLE4=Rosetta
TTITLE5=How Deep Is The Ocean
TTITLE6=Anything
TTITLE7=Hello Little Girl
TTITLE8=Honky Tonk Train
TTITLE9=Lady Be Good
EXTD=
EXTT0='Deed I Do
EXTT1=One O'Clock Jump
EXTT2=Going To Kansas City
EXTT3=One Sweet Blues
EXTT4=Rosetta
EXTT5=How Deep Is The Ocean
EXTT6=Anything
EXTT7=Hello Little Girl
EXTT8=Honky Tonk Train
EXTT9=Lady Be Good
PLAYORDER=
